<mxfile host="app.diagrams.net" modified="2023-09-26T10:29:50.592Z" agent="Mozilla/5.0 (Windows NT 10.0; Win64; x64) AppleWebKit/537.36 (KHTML, like Gecko) Chrome/117.0.0.0 Safari/537.36" etag="t_cDAT4J9Iv3bisCOzzD" version="21.8.2" type="github">
  <diagram id="R2lEEEUBdFMjLlhIrx00" name="Page-1">
    <mxGraphModel dx="2284" dy="1858" grid="1" gridSize="10" guides="1" tooltips="1" connect="1" arrows="1" fold="1" page="1" pageScale="1" pageWidth="850" pageHeight="1100" math="0" shadow="0" extFonts="Permanent Marker^https://fonts.googleapis.com/css?family=Permanent+Marker">
      <root>
        <mxCell id="0" />
        <mxCell id="1" parent="0" />
        <mxCell id="JLIcFYk4vpwf9IPf_Qi_-1" value="成绩管理员" style="rounded=0;whiteSpace=wrap;html=1;" vertex="1" parent="1">
          <mxGeometry x="70" y="90" width="120" height="60" as="geometry" />
        </mxCell>
        <mxCell id="JLIcFYk4vpwf9IPf_Qi_-2" value="学生" style="rounded=0;whiteSpace=wrap;html=1;" vertex="1" parent="1">
          <mxGeometry x="140" y="220" width="120" height="60" as="geometry" />
        </mxCell>
        <mxCell id="JLIcFYk4vpwf9IPf_Qi_-3" value="教师" style="rounded=0;whiteSpace=wrap;html=1;" vertex="1" parent="1">
          <mxGeometry x="470" y="240" width="120" height="60" as="geometry" />
        </mxCell>
        <mxCell id="JLIcFYk4vpwf9IPf_Qi_-4" value="用户编号" style="ellipse;whiteSpace=wrap;html=1;" vertex="1" parent="1">
          <mxGeometry x="-20" y="-20" width="120" height="40" as="geometry" />
        </mxCell>
        <mxCell id="JLIcFYk4vpwf9IPf_Qi_-5" value="姓名" style="ellipse;whiteSpace=wrap;html=1;" vertex="1" parent="1">
          <mxGeometry x="-30" y="70" width="60" height="30" as="geometry" />
        </mxCell>
        <mxCell id="JLIcFYk4vpwf9IPf_Qi_-6" value="地址" style="ellipse;whiteSpace=wrap;html=1;" vertex="1" parent="1">
          <mxGeometry x="80" y="-40" width="60" height="30" as="geometry" />
        </mxCell>
        <mxCell id="JLIcFYk4vpwf9IPf_Qi_-7" value="密码" style="ellipse;whiteSpace=wrap;html=1;" vertex="1" parent="1">
          <mxGeometry x="140" y="-20" width="60" height="30" as="geometry" />
        </mxCell>
        <mxCell id="JLIcFYk4vpwf9IPf_Qi_-8" value="年龄" style="ellipse;whiteSpace=wrap;html=1;" vertex="1" parent="1">
          <mxGeometry x="180" y="20" width="60" height="30" as="geometry" />
        </mxCell>
        <mxCell id="JLIcFYk4vpwf9IPf_Qi_-9" value="性别" style="ellipse;whiteSpace=wrap;html=1;" vertex="1" parent="1">
          <mxGeometry x="-50" y="120" width="60" height="30" as="geometry" />
        </mxCell>
        <mxCell id="JLIcFYk4vpwf9IPf_Qi_-10" value="电话号码" style="ellipse;whiteSpace=wrap;html=1;" vertex="1" parent="1">
          <mxGeometry x="-60" y="20" width="120" height="40" as="geometry" />
        </mxCell>
        <mxCell id="JLIcFYk4vpwf9IPf_Qi_-11" value="" style="endArrow=none;html=1;rounded=0;entryX=0.5;entryY=1;entryDx=0;entryDy=0;exitX=0.5;exitY=0;exitDx=0;exitDy=0;" edge="1" parent="1" source="JLIcFYk4vpwf9IPf_Qi_-1" target="JLIcFYk4vpwf9IPf_Qi_-6">
          <mxGeometry width="50" height="50" relative="1" as="geometry">
            <mxPoint x="400" y="220" as="sourcePoint" />
            <mxPoint x="450" y="170" as="targetPoint" />
          </mxGeometry>
        </mxCell>
        <mxCell id="JLIcFYk4vpwf9IPf_Qi_-12" value="" style="endArrow=none;html=1;rounded=0;entryX=0.5;entryY=1;entryDx=0;entryDy=0;exitX=0.5;exitY=0;exitDx=0;exitDy=0;" edge="1" parent="1" source="JLIcFYk4vpwf9IPf_Qi_-1" target="JLIcFYk4vpwf9IPf_Qi_-7">
          <mxGeometry width="50" height="50" relative="1" as="geometry">
            <mxPoint x="140" y="100" as="sourcePoint" />
            <mxPoint x="120" as="targetPoint" />
          </mxGeometry>
        </mxCell>
        <mxCell id="JLIcFYk4vpwf9IPf_Qi_-13" value="" style="endArrow=none;html=1;rounded=0;entryX=0;entryY=0;entryDx=0;entryDy=0;" edge="1" parent="1" target="JLIcFYk4vpwf9IPf_Qi_-8">
          <mxGeometry width="50" height="50" relative="1" as="geometry">
            <mxPoint x="130" y="90" as="sourcePoint" />
            <mxPoint x="221" y="73" as="targetPoint" />
          </mxGeometry>
        </mxCell>
        <mxCell id="JLIcFYk4vpwf9IPf_Qi_-14" value="教师号" style="ellipse;whiteSpace=wrap;html=1;" vertex="1" parent="1">
          <mxGeometry x="230" y="50" width="70" height="30" as="geometry" />
        </mxCell>
        <mxCell id="JLIcFYk4vpwf9IPf_Qi_-15" value="" style="endArrow=none;html=1;rounded=0;entryX=0;entryY=0.5;entryDx=0;entryDy=0;exitX=0.558;exitY=0;exitDx=0;exitDy=0;exitPerimeter=0;" edge="1" parent="1" source="JLIcFYk4vpwf9IPf_Qi_-1" target="JLIcFYk4vpwf9IPf_Qi_-14">
          <mxGeometry width="50" height="50" relative="1" as="geometry">
            <mxPoint x="140" y="100" as="sourcePoint" />
            <mxPoint x="199" y="34" as="targetPoint" />
          </mxGeometry>
        </mxCell>
        <mxCell id="JLIcFYk4vpwf9IPf_Qi_-16" value="" style="endArrow=none;html=1;rounded=0;entryX=1;entryY=1;entryDx=0;entryDy=0;" edge="1" parent="1" target="JLIcFYk4vpwf9IPf_Qi_-4">
          <mxGeometry width="50" height="50" relative="1" as="geometry">
            <mxPoint x="130" y="90" as="sourcePoint" />
            <mxPoint x="120" as="targetPoint" />
          </mxGeometry>
        </mxCell>
        <mxCell id="JLIcFYk4vpwf9IPf_Qi_-17" value="" style="endArrow=none;html=1;rounded=0;entryX=1;entryY=0.5;entryDx=0;entryDy=0;" edge="1" parent="1" target="JLIcFYk4vpwf9IPf_Qi_-10">
          <mxGeometry width="50" height="50" relative="1" as="geometry">
            <mxPoint x="130" y="90" as="sourcePoint" />
            <mxPoint x="82" y="44" as="targetPoint" />
          </mxGeometry>
        </mxCell>
        <mxCell id="JLIcFYk4vpwf9IPf_Qi_-18" value="" style="endArrow=none;html=1;rounded=0;entryX=1;entryY=0;entryDx=0;entryDy=0;" edge="1" parent="1" target="JLIcFYk4vpwf9IPf_Qi_-5">
          <mxGeometry width="50" height="50" relative="1" as="geometry">
            <mxPoint x="130" y="90" as="sourcePoint" />
            <mxPoint x="60" y="80" as="targetPoint" />
          </mxGeometry>
        </mxCell>
        <mxCell id="JLIcFYk4vpwf9IPf_Qi_-19" value="系统管理员" style="rounded=0;whiteSpace=wrap;html=1;" vertex="1" parent="1">
          <mxGeometry x="600" y="100" width="120" height="60" as="geometry" />
        </mxCell>
        <mxCell id="JLIcFYk4vpwf9IPf_Qi_-20" value="" style="endArrow=none;html=1;rounded=0;entryX=1;entryY=0;entryDx=0;entryDy=0;exitX=0;exitY=0.5;exitDx=0;exitDy=0;" edge="1" parent="1" source="JLIcFYk4vpwf9IPf_Qi_-1" target="JLIcFYk4vpwf9IPf_Qi_-9">
          <mxGeometry width="50" height="50" relative="1" as="geometry">
            <mxPoint x="140" y="100" as="sourcePoint" />
            <mxPoint x="31" y="84" as="targetPoint" />
          </mxGeometry>
        </mxCell>
      </root>
    </mxGraphModel>
  </diagram>
</mxfile>
